<?xml version="1.0" encoding="UTF-8" standalone="no"?>
<!-- Created with Inkscape (http://www.inkscape.org/) -->

<svg
   width="4000"
   height="4000"
   viewBox="0 0 1058.3333 1058.3333"
   version="1.1"
   id="svg3262"
   inkscape:version="1.2.2 (732a01da63, 2022-12-09)"
   sodipodi:docname="Clarity TEXT Vector Filled.svg"
   xmlns:inkscape="http://www.inkscape.org/namespaces/inkscape"
   xmlns:sodipodi="http://sodipodi.sourceforge.net/DTD/sodipodi-0.dtd"
   xmlns:xlink="http://www.w3.org/1999/xlink"
   xmlns="http://www.w3.org/2000/svg"
   xmlns:svg="http://www.w3.org/2000/svg">
  <sodipodi:namedview
     id="namedview3264"
     pagecolor="#000000"
     bordercolor="#ffffff"
     borderopacity="1"
     inkscape:showpageshadow="0"
     inkscape:pageopacity="0"
     inkscape:pagecheckerboard="1"
     inkscape:deskcolor="#090909"
     inkscape:document-units="mm"
     showgrid="false"
     inkscape:zoom="0.28779246"
     inkscape:cx="1916.3115"
     inkscape:cy="1827.706"
     inkscape:window-width="1920"
     inkscape:window-height="1017"
     inkscape:window-x="-8"
     inkscape:window-y="1076"
     inkscape:window-maximized="1"
     inkscape:current-layer="g12538" />
  <defs
     id="defs3259">
    <linearGradient
       inkscape:collect="always"
       id="linearGradient12885">
      <stop
         style="stop-color:#00ffff;stop-opacity:1;"
         offset="0"
         id="stop12881" />
      <stop
         style="stop-color:#00ffff;stop-opacity:0;"
         offset="1"
         id="stop12883" />
    </linearGradient>
    <linearGradient
       inkscape:collect="always"
       xlink:href="#linearGradient12885"
       id="linearGradient12887"
       x1="651.1001"
       y1="852.85828"
       x2="651.1001"
       y2="642.89569"
       gradientUnits="userSpaceOnUse" />
    <linearGradient
       inkscape:collect="always"
       xlink:href="#linearGradient12885"
       id="linearGradient12889"
       x1="651.1001"
       y1="852.85828"
       x2="651.1001"
       y2="642.89569"
       gradientUnits="userSpaceOnUse" />
    <linearGradient
       inkscape:collect="always"
       xlink:href="#linearGradient12885"
       id="linearGradient12891"
       x1="651.1001"
       y1="852.85828"
       x2="651.1001"
       y2="642.89569"
       gradientUnits="userSpaceOnUse" />
    <linearGradient
       inkscape:collect="always"
       xlink:href="#linearGradient12885"
       id="linearGradient12893"
       x1="651.1001"
       y1="852.85828"
       x2="651.1001"
       y2="642.89569"
       gradientUnits="userSpaceOnUse" />
    <linearGradient
       inkscape:collect="always"
       xlink:href="#linearGradient12885"
       id="linearGradient12895"
       x1="651.1001"
       y1="852.85828"
       x2="651.1001"
       y2="642.89569"
       gradientUnits="userSpaceOnUse" />
    <linearGradient
       inkscape:collect="always"
       xlink:href="#linearGradient12885"
       id="linearGradient12897"
       x1="651.1001"
       y1="852.85828"
       x2="651.1001"
       y2="642.89569"
       gradientUnits="userSpaceOnUse" />
    <linearGradient
       inkscape:collect="always"
       xlink:href="#linearGradient12885"
       id="linearGradient12899"
       x1="651.1001"
       y1="852.85828"
       x2="651.1001"
       y2="642.89569"
       gradientUnits="userSpaceOnUse" />
  </defs>
  <g
     inkscape:label="Layer 1"
     inkscape:groupmode="layer"
     id="layer1">
    <g
       aria-label="Clarity"
       transform="matrix(0.41424357,0,0,0.65641977,271.4648,97.673959)"
       id="g12538"
       style="font-size:303.307px;font-family:GodOfWar;-inkscape-font-specification:'GodOfWar, Normal';text-align:center;text-anchor:middle;display:inline;fill:#ff00ff;stroke-width:8.59763;stroke-linecap:round;stroke-linejoin:round"
       inkscape:label="Blue Bottom">
      <g
         aria-label="Clarity"
         transform="translate(4.5263224e-6)"
         id="g511"
         style="font-size:303.307px;font-family:GodOfWar;-inkscape-font-specification:'GodOfWar, Normal';text-align:center;text-anchor:middle;display:inline;fill:#ffffff;stroke-width:5.75311;stroke-linecap:round;stroke-linejoin:round;stroke-dasharray:none;stroke:none"
         inkscape:label="WHITE">
        <path
           d="m 12.832186,762.68926 q -50.269905,92.9231 -148.524686,121.86637 -35.79824,10.66333 -83.78313,10.66333 -119.58139,0 -196.50955,-66.26486 -63.97985,-54.07821 -76.92816,-140.14634 -16.75663,-20.56496 -45.69989,-44.93826 6.09332,-1.52331 47.22322,-45.6999 15.99496,-78.45147 77.68983,-132.52969 79.21315,-70.83484 204.88785,-70.83484 76.1665,0 140.908014,31.22827 l 22.849939,-19.04163 h 31.98994 l 3.8083203,173.65962 H -42.00771 q -54.078208,-153.85632 -162.23462,-153.85632 -127.19803,0 -140.90802,171.37459 10.66332,12.18665 21.32663,25.13496 16.75662,19.04163 24.37326,20.56494 -6.85497,2.285 -45.69989,44.93826 2.28499,18.27993 10.66332,46.46153 8.37831,27.41997 32.75158,56.36321 41.12991,48.74656 115.77308,48.74656 51.7932,0 92.923101,-25.13494 48.746563,-31.22826 73.881499,-69.3115 z"
           style="display:inline;opacity:1;fill:#ffffff;fill-opacity:1;stroke:none;stroke-width:5.75311;stroke-dasharray:none"
           id="path497" />
        <path
           d="m 299.22177,689.56782 -5.25094,84.01496 H 25.648044 v -14.17752 q 11.026969,-1.0502 29.405234,-4.20076 13.127346,-4.72583 13.127346,-18.90336 V 665.4135 q -9.45169,-11.55205 -25.204496,-24.67939 3.150558,-0.52508 25.204496,-24.67938 v -64.58652 q 0,-13.65243 -13.127346,-18.90336 -8.926592,-3.67566 -29.405234,-6.30112 V 511.5611 H 185.27647 v 14.70263 q -17.85318,1.05018 -22.57902,2.10038 -15.22772,3.15056 -18.37828,8.92657 -3.15056,5.77604 -3.15056,12.07717 v 66.68688 q 9.45169,11.55205 25.2045,24.67938 -3.15058,1.05019 -25.2045,24.67939 v 35.18127 q 0,23.62922 8.92659,29.40525 8.92659,5.77602 41.48238,5.77602 16.27791,0 31.50562,-1.57528 20.47866,-2.62546 26.77977,-7.87639 8.92659,-5.25094 25.72958,-22.05394 2.10038,-2.62546 8.92659,-14.70261 z"
           style="opacity:1;fill:#ffffff;fill-opacity:1;stroke:none;stroke-width:5.75311;stroke-dasharray:none"
           id="path499" />
        <path
           d="m 649.85677,773.58278 h -154.3775 v -14.17752 q 41.48239,-3.15056 41.48239,-11.02697 0,-2.10038 -2.10038,-8.4015 L 518.05829,690.0929 h -96.09211 q -2.62548,3.15058 -7.87641,13.65245 -5.25094,12.07715 -11.55205,33.08089 -1.0502,4.20074 -1.0502,6.30111 0,5.77604 9.97679,9.97677 0.52508,2.62548 16.2779,6.30114 v 14.17752 H 308.54597 v -14.17752 q 18.90338,-1.0502 28.88015,-6.30114 15.7528,-8.92657 23.62921,-26.25467 l 18.90337,-40.95729 q -9.45169,-11.55206 -25.2045,-24.67939 5.25094,-1.57528 25.2045,-11.55207 19.95354,-9.97677 22.57902,-13.65243 l 6.30111,-13.12733 53.03445,-114.99549 h 40.95731 l 63.01122,140.72507 q 23.10412,53.03445 38.85692,85.59024 10.50187,23.10412 45.15804,25.2045 z M 509.6568,657.01201 476.05081,561.97008 434.56843,657.01201 Z"
           style="opacity:1;fill:#ffffff;fill-opacity:1;stroke:none;stroke-width:5.75311;stroke-dasharray:none"
           id="path501" />
        <path
           d="M 916.23016,804.33997 893.50922,773.58278 C 858.50298,730.52512 824.54694,691.1431 791.64107,655.43673 H 780.6141 v 79.81423 c 0,9.10162 4.37579,15.40273 13.12735,18.90336 5.95106,2.10038 14.87765,3.85069 26.77978,5.25094 v 14.17752 h -155.4277 v -14.17752 c 7.35131,-0.70013 17.15306,-2.10038 29.40523,-4.20076 8.75157,-3.15056 13.12735,-9.45167 13.12735,-18.90336 V 665.4135 c -6.30113,-7.35129 -14.70262,-15.57776 -25.2045,-24.67939 2.10038,-0.35006 10.50188,-8.57652 25.2045,-24.67938 v -64.58652 c 0,-9.45169 -4.37578,-15.75281 -13.12735,-18.90336 -6.30111,-2.45044 -16.10286,-4.55081 -29.40523,-6.30112 V 511.5611 h 163.30409 c 74.21322,0 111.31984,20.65369 111.31984,61.96105 0,34.65617 -23.62922,58.11034 -70.88764,70.36253 l 116.6762,157.66224 m 23.84518,34.27206 65.7748,89.84002 h -17.328 c -27.3049,-24.85443 -40.6703,-37.63172 -78.12694,-38.33185 l -40.58232,-52.55217 m -79.71061,-256.0019 c 0,-17.50311 -5.42596,-30.28038 -16.27788,-38.33182 -5.95107,-4.55081 -21.35382,-6.82622 -46.20824,-6.82622 H 780.6141 v 99.24267 h 15.75281 c 24.15432,0 39.73209,-2.97553 46.73334,-8.92659 10.85192,-9.45169 16.27788,-24.50437 16.27788,-45.15804 z"
           style="opacity:1;fill:#ffffff;fill-opacity:1;stroke:none;stroke-width:5.75311;stroke-dasharray:none"
           id="path503"
           sodipodi:nodetypes="ccccsccccccscccscccsscccccccscsccscs" />
        <path
           d="M 1142.3202,773.58278 H 981.11655 v -14.17752 l 16.27786,-1.57528 q 11.02689,-0.5251 14.70259,-2.10038 13.1273,-4.72584 13.1273,-18.90336 V 665.4135 q -9.4517,-11.55205 -25.2044,-24.67939 3.1505,-0.52508 25.2044,-24.67938 v -64.58652 q 0,-14.17753 -12.6022,-18.37827 -12.0771,-4.72583 -31.50555,-6.82621 V 511.5611 h 161.20365 v 14.70263 q -18.9034,1.57528 -22.579,2.10038 -15.2278,2.62546 -18.3783,8.92657 -3.1506,5.77604 -3.1506,12.07717 v 66.68688 q 9.4517,11.55205 25.2045,24.67938 -3.1506,1.05019 -25.2045,24.67939 v 69.83746 q 0,13.65243 13.1273,18.90336 11.027,3.67566 30.9806,5.25094 z"
           style="opacity:1;fill:#ffffff;fill-opacity:1;stroke:none;stroke-width:5.75311;stroke-dasharray:none"
           id="path505" />
        <path
           d="m 1442.6155,586.64948 h -15.7528 q -1.5752,-5.25094 -12.077,-23.6292 -13.1274,-17.85319 -34.1312,-20.47866 -15.7528,-2.10036 -33.0808,-2.10036 h -9.4518 v 75.61347 q 20.4787,22.57902 29.4053,24.67938 -9.4517,3.15057 -29.4053,24.67939 V 773.58278 H 1265.134 V 665.4135 q -19.9536,-21.52882 -29.4053,-24.67939 8.9266,-2.62546 29.4053,-24.67938 v -75.61347 h -9.4517 q -17.8532,0 -33.0809,2.10036 -21.0037,2.62547 -34.1311,20.47866 -6.8262,8.92659 -12.0771,23.6292 h -15.7528 V 511.5611 h 281.9751 z"
           style="opacity:1;fill:#ffffff;fill-opacity:1;stroke:none;stroke-width:5.75311;stroke-dasharray:none"
           id="path507" />
        <path
           d="m 985.58554,802.05655 604.25076,-20.12051 v -92.89332 c 0,-9.45169 -0.5251,-15.40275 -1.5754,-17.85318 -1.0502,-2.45043 -2.6254,-5.60101 -4.7257,-9.45169 l -9.4518,-14.17751 c -19.6034,-31.15556 -39.0318,-60.91086 -58.2853,-89.26592 -11.9022,-17.15305 -25.9047,-27.30485 -42.0075,-30.45541 -5.251,-1.05018 -9.9768,-1.57528 -14.1776,-1.57528 V 511.5611 h 158.0532 v 14.70263 c -25.9046,0.35005 -38.8569,3.32559 -38.8569,8.92659 0,2.80049 4.5508,11.72708 13.6524,26.77976 2.8005,5.25093 9.6267,16.2779 20.4787,33.08091 6.3012,8.75154 16.978,23.80422 32.0307,45.15804 9.8017,-14.0025 26.2546,-38.50686 49.3587,-73.5131 9.8017,-14.70262 14.7026,-23.62921 14.7026,-26.77977 0,-5.25094 -1.4002,-8.40151 -4.2007,-9.45169 -2.4505,-1.40024 -8.9267,-2.80049 -19.4285,-4.20074 V 511.5611 h 107.6443 v 14.70263 c 0,0.35005 -1.5752,1.05018 -4.7259,2.10038 -10.5018,2.80048 -19.7786,8.22645 -27.83,16.27788 -7.7014,7.70139 -21.3537,25.37953 -40.9572,53.03446 -7.0013,9.80174 -17.6783,25.02946 -32.0307,45.68313 -7.0012,8.75155 -14.3526,19.60349 -22.0539,32.5558 -1.7505,5.601 -2.6256,12.42722 -2.6256,20.47865 V 834.9705 h -15.2277 l -639.3584,-0.1993 M 938.09119,834.7493 12.434822,834.46076 915.72902,804.38262"
           style="display:inline;opacity:1;fill:#ffffff;fill-opacity:1;stroke:none;stroke-width:5.75311;stroke-dasharray:none"
           id="path509"
           sodipodi:nodetypes="ccssccccccccsccccsccccscscccscccccc" />
      </g>
      <path
         id="path12524"
         mask="none"
         style="display:inline;opacity:1;fill:url(#linearGradient12887);fill-opacity:1;stroke-width:14.8845"
         inkscape:label="Y"
         d="m 1571.7571,643.92875 c 0.7786,1.23388 1.5474,2.39326 2.3265,3.63157 l 9.451,14.17752 c 2.1003,3.85068 3.6765,7.00126 4.7267,9.45169 1.0503,2.45043 1.5744,8.4015 1.5744,17.85318 v 92.89354 L 12.434409,834.46056 1647.5969,834.9707 h 15.2269 V 696.39402 c 0,-8.05142 0.8754,-14.87766 2.6259,-20.47865 7.5523,-12.70159 14.7588,-23.32474 21.6377,-31.98662 z" />
      <path
         id="path12526"
         mask="none"
         style="font-size:303.307px;font-family:GodOfWar;-inkscape-font-specification:'GodOfWar, Normal';text-align:center;text-anchor:middle;display:inline;opacity:1;fill:url(#linearGradient12889);fill-opacity:1;stroke-width:14.8845;stroke-linecap:round;stroke-linejoin:round"
         inkscape:label="T"
         d="m 1241.785,641.2046 c 5.9596,3.9705 13.7244,13.82428 23.3492,24.2089 v 108.16927 h 72.9881 V 665.4135 c 9.6248,-10.38462 17.3897,-20.2384 23.3493,-24.2089 z"
         transform="translate(4.5263225e-6)"
         sodipodi:nodetypes="ccccccc" />
      <path
         id="path12528"
         mask="none"
         style="font-size:303.307px;font-family:GodOfWar;-inkscape-font-specification:'GodOfWar, Normal';text-align:center;text-anchor:middle;display:inline;opacity:1;fill:url(#linearGradient12891);fill-opacity:1;stroke-width:14.8845;stroke-linecap:round;stroke-linejoin:round"
         inkscape:label="I"
         d="m 1003.7865,641.2046 c 8.7623,7.56555 15.9096,17.4518 21.4381,24.2089 v 71.41272 c 0,9.45167 -4.3758,15.75282 -13.1273,18.90337 -2.4505,1.05019 -7.3517,1.75031 -14.70292,2.10038 l -16.27723,1.57528 v 14.17752 h 161.20305 v -14.17752 c -13.3024,-1.05019 -23.6288,-2.8005 -30.9802,-5.25094 -8.7515,-3.50061 -13.1273,-9.80176 -13.1273,-18.90337 V 665.4135 c 9.8859,-10.59205 16.8531,-20.42233 21.0414,-24.2089 z"
         transform="translate(4.5263225e-6)"
         sodipodi:nodetypes="ccscccccccsccc" />
      <path
         id="path12530"
         mask="none"
         style="font-size:303.307px;font-family:GodOfWar;-inkscape-font-specification:'GodOfWar, Normal';text-align:center;text-anchor:middle;display:inline;opacity:1;fill:url(#linearGradient12893);fill-opacity:1;stroke-width:14.8845;stroke-linecap:round;stroke-linejoin:round"
         inkscape:label="R"
         d="m 686.00989,641.2046 c 8.79976,7.8259 16.07071,17.73885 21.61649,24.2089 v 70.88763 c 0,9.45168 -4.37577,15.75281 -13.12733,18.90337 -12.25216,2.10038 -22.05451,3.50062 -29.40581,4.20075 v 14.17752 h 155.4284 v -14.17752 c -11.90212,-1.40025 -20.82879,-3.15056 -26.77985,-5.25094 -8.75155,-3.50062 -13.12732,-9.80176 -13.12732,-18.90337 v -79.81422 h 11.02655 c 32.90584,35.70633 66.86251,75.08844 101.86871,118.14605 l 23.41787,30.91518 68.3125,-1.61228 L 868.86184,641.2046 Z m 253.78668,193.44569 39.87474,52.67704 c 37.45659,0.70013 50.82159,13.47743 78.12649,38.33183 h 17.3276 l -66.6146,-90.98761 z"
         transform="translate(4.5263225e-6)"
         sodipodi:nodetypes="ccsccccccsccccccccccccc" />
      <path
         id="path12532"
         mask="none"
         style="font-size:303.307px;font-family:GodOfWar;-inkscape-font-specification:'GodOfWar, Normal';text-align:center;text-anchor:middle;display:inline;opacity:1;fill:url(#linearGradient12895);fill-opacity:1;stroke-width:14.8845;stroke-linecap:round;stroke-linejoin:round"
         inkscape:label="A"
         d="m 390.61695,643.92875 c -3.19352,1.78007 -6.12072,3.46303 -10.65855,5.73194 -13.30236,6.65119 -21.70364,10.50187 -25.20426,11.55206 10.50186,8.75154 18.90314,16.97803 25.20426,24.6794 l -18.9032,40.9573 c -5.25093,11.55205 -13.12683,20.30363 -23.62869,26.25468 -6.65117,3.50062 -16.27838,5.60099 -28.88062,6.30112 v 14.17752 h 119.19634 v -14.17752 c -10.50187,-2.45044 -15.92844,-4.55081 -16.27849,-6.30112 -6.65119,-2.80049 -9.97617,-6.12609 -9.97617,-9.97678 0,-1.40025 0.35025,-3.50064 1.05039,-6.30113 4.20073,-14.00247 8.05112,-25.02947 11.55175,-33.08089 3.50061,-7.00124 6.12632,-11.55205 7.87664,-13.65243 h 96.09159 l 16.80368,49.88389 c 1.40025,4.20074 2.09952,7.00124 2.09952,8.40149 0,5.25094 -13.82661,8.9266 -41.48151,11.02697 v 14.17752 H 649.85641 V 759.40525 C 626.75232,758.005 611.69979,749.60349 604.69855,734.20076 594.19669,712.49692 581.24449,683.96677 565.84176,648.6105 l -2.09578,-4.68175 h -58.71432 l 4.62569,13.08325 h -75.08886 l 5.711,-13.08325 z"
         transform="translate(4.5263225e-6)" />
      <path
         id="path12534"
         mask="none"
         style="font-size:303.307px;font-family:GodOfWar;-inkscape-font-specification:'GodOfWar, Normal';text-align:center;text-anchor:middle;display:inline;opacity:1;fill:url(#linearGradient12897);fill-opacity:1;stroke-width:14.8845;stroke-linecap:round;stroke-linejoin:round"
         inkscape:label="L"
         d="m 46.674236,641.2046 c 8.749619,7.55667 15.984029,17.45896 21.506712,24.2089 v 70.88763 c 0,9.45168 -4.375772,15.75282 -13.127328,18.90337 -12.252164,2.10037 -22.054506,3.50062 -29.405812,4.20075 v 14.17752 H 293.97023 l 5.25193,-84.01497 h -14.70291 c -4.5508,8.05143 -7.52678,12.95232 -8.92703,14.70262 -11.20198,11.20199 -19.77841,18.55331 -25.72946,22.05393 -4.20074,3.50062 -13.12742,6.1261 -26.77985,7.87641 -10.15179,1.05018 -20.6534,1.57528 -31.50533,1.57528 -21.70384,0 -35.5317,-1.92536 -41.48276,-5.77603 -5.95105,-3.85068 -8.92578,-13.65244 -8.92578,-29.40524 V 665.4135 c 9.88591,-10.59205 16.85309,-20.42233 21.0414,-24.2089 z"
         transform="translate(4.5263225e-6)"
         sodipodi:nodetypes="ccscccccccccsssccc" />
      <path
         id="path12536"
         mask="none"
         style="font-size:303.307px;font-family:GodOfWar;-inkscape-font-specification:'GodOfWar, Normal';text-align:center;text-anchor:middle;display:inline;opacity:1;fill:url(#linearGradient12899);fill-opacity:1;stroke-width:21.5905;stroke-linecap:round;stroke-linejoin:round"
         inkscape:label="C"
         d="m -538.54534,643.92875 c 19.26169,16.22569 34.4746,31.1863 45.6319,44.87936 8.6322,57.3787 34.27447,104.09356 76.92767,140.14566 51.28538,44.17653 116.78986,66.26492 196.51071,66.26492 31.98989,0 59.91714,-3.55437 83.78261,-10.66325 65.503125,-19.2955 115.011567,-59.91713 148.524803,-121.8658 l -31.990609,-16.75733 c -16.756608,25.3888 -41.383616,48.49274 -73.881293,69.31156 -27.419911,16.75661 -58.394201,25.13522 -92.922961,25.13522 -49.76207,0 -88.35331,-16.24865 -115.77323,-48.74632 -16.24883,-19.29548 -27.16604,-38.08376 -32.75157,-56.36372 -5.58555,-18.78771 -9.14022,-34.27433 -10.66354,-46.46094 25.73778,-28.26111 40.92005,-43.20135 45.59198,-44.87936 z"
         transform="translate(4.5263225e-6)" />
    </g>
    <g
       aria-label="Clarity"
       transform="matrix(0.41424357,0,0,0.65641977,271.4648,97.673959)"
       id="g3920"
       style="font-size:303.307px;font-family:GodOfWar;-inkscape-font-specification:'GodOfWar, Normal';text-align:center;text-anchor:middle;display:inline;fill:none;stroke-width:5.75311;stroke-linecap:round;stroke-linejoin:round;stroke-dasharray:none"
       inkscape:label="Text OL">
      <path
         d="m 12.832186,762.68926 q -50.269905,92.9231 -148.524686,121.86637 -35.79824,10.66333 -83.78313,10.66333 -119.58139,0 -196.50955,-66.26486 -63.97985,-54.07821 -76.92816,-140.14634 -16.75663,-20.56496 -45.69989,-44.93826 6.09332,-1.52331 47.22322,-45.6999 15.99496,-78.45147 77.68983,-132.52969 79.21315,-70.83484 204.88785,-70.83484 76.1665,0 140.908014,31.22827 l 22.849939,-19.04163 h 31.98994 l 3.8083203,173.65962 H -42.00771 q -54.078208,-153.85632 -162.23462,-153.85632 -127.19803,0 -140.90802,171.37459 10.66332,12.18665 21.32663,25.13496 16.75662,19.04163 24.37326,20.56494 -6.85497,2.285 -45.69989,44.93826 2.28499,18.27993 10.66332,46.46153 8.37831,27.41997 32.75158,56.36321 41.12991,48.74656 115.77308,48.74656 51.7932,0 92.923101,-25.13494 48.746563,-31.22826 73.881499,-69.3115 z"
         style="display:inline;opacity:1;fill:none;fill-opacity:1;stroke:#000000;stroke-width:5.75311;stroke-dasharray:none"
         id="path3906" />
      <path
         d="m 299.22177,689.56782 -5.25094,84.01496 H 25.648044 v -14.17752 q 11.026969,-1.0502 29.405234,-4.20076 13.127346,-4.72583 13.127346,-18.90336 V 665.4135 q -9.45169,-11.55205 -25.204496,-24.67939 3.150558,-0.52508 25.204496,-24.67938 v -64.58652 q 0,-13.65243 -13.127346,-18.90336 -8.926592,-3.67566 -29.405234,-6.30112 V 511.5611 H 185.27647 v 14.70263 q -17.85318,1.05018 -22.57902,2.10038 -15.22772,3.15056 -18.37828,8.92657 -3.15056,5.77604 -3.15056,12.07717 v 66.68688 q 9.45169,11.55205 25.2045,24.67938 -3.15058,1.05019 -25.2045,24.67939 v 35.18127 q 0,23.62922 8.92659,29.40525 8.92659,5.77602 41.48238,5.77602 16.27791,0 31.50562,-1.57528 20.47866,-2.62546 26.77977,-7.87639 8.92659,-5.25094 25.72958,-22.05394 2.10038,-2.62546 8.92659,-14.70261 z"
         style="opacity:1;fill:none;fill-opacity:1;stroke:#000000;stroke-width:5.75311;stroke-dasharray:none"
         id="path3908" />
      <path
         d="m 649.85677,773.58278 h -154.3775 v -14.17752 q 41.48239,-3.15056 41.48239,-11.02697 0,-2.10038 -2.10038,-8.4015 L 518.05829,690.0929 h -96.09211 q -2.62548,3.15058 -7.87641,13.65245 -5.25094,12.07715 -11.55205,33.08089 -1.0502,4.20074 -1.0502,6.30111 0,5.77604 9.97679,9.97677 0.52508,2.62548 16.2779,6.30114 v 14.17752 H 308.54597 v -14.17752 q 18.90338,-1.0502 28.88015,-6.30114 15.7528,-8.92657 23.62921,-26.25467 l 18.90337,-40.95729 q -9.45169,-11.55206 -25.2045,-24.67939 5.25094,-1.57528 25.2045,-11.55207 19.95354,-9.97677 22.57902,-13.65243 l 6.30111,-13.12733 53.03445,-114.99549 h 40.95731 l 63.01122,140.72507 q 23.10412,53.03445 38.85692,85.59024 10.50187,23.10412 45.15804,25.2045 z M 509.6568,657.01201 476.05081,561.97008 434.56843,657.01201 Z"
         style="opacity:1;fill:none;fill-opacity:1;stroke:#000000;stroke-width:5.75311;stroke-dasharray:none"
         id="path3910" />
      <path
         d="M 916.23016,804.33997 893.50922,773.58278 C 858.50298,730.52512 824.54694,691.1431 791.64107,655.43673 H 780.6141 v 79.81423 c 0,9.10162 4.37579,15.40273 13.12735,18.90336 5.95106,2.10038 14.87765,3.85069 26.77978,5.25094 v 14.17752 h -155.4277 v -14.17752 c 7.35131,-0.70013 17.15306,-2.10038 29.40523,-4.20076 8.75157,-3.15056 13.12735,-9.45167 13.12735,-18.90336 V 665.4135 c -6.30113,-7.35129 -14.70262,-15.57776 -25.2045,-24.67939 2.10038,-0.35006 10.50188,-8.57652 25.2045,-24.67938 v -64.58652 c 0,-9.45169 -4.37578,-15.75281 -13.12735,-18.90336 -6.30111,-2.45044 -16.10286,-4.55081 -29.40523,-6.30112 V 511.5611 h 163.30409 c 74.21322,0 111.31984,20.65369 111.31984,61.96105 0,34.65617 -23.62922,58.11034 -70.88764,70.36253 l 116.6762,157.66224 m 23.84518,34.27206 65.7748,89.84002 h -17.328 c -27.3049,-24.85443 -40.6703,-37.63172 -78.12694,-38.33185 l -40.58232,-52.55217 m -79.71061,-256.0019 c 0,-17.50311 -5.42596,-30.28038 -16.27788,-38.33182 -5.95107,-4.55081 -21.35382,-6.82622 -46.20824,-6.82622 H 780.6141 v 99.24267 h 15.75281 c 24.15432,0 39.73209,-2.97553 46.73334,-8.92659 10.85192,-9.45169 16.27788,-24.50437 16.27788,-45.15804 z"
         style="opacity:1;fill:none;fill-opacity:1;stroke:#000000;stroke-width:5.75311;stroke-dasharray:none"
         id="path3912"
         sodipodi:nodetypes="ccccsccccccscccscccsscccccccscsccscs" />
      <path
         d="M 1142.3202,773.58278 H 981.11655 v -14.17752 l 16.27786,-1.57528 q 11.02689,-0.5251 14.70259,-2.10038 13.1273,-4.72584 13.1273,-18.90336 V 665.4135 q -9.4517,-11.55205 -25.2044,-24.67939 3.1505,-0.52508 25.2044,-24.67938 v -64.58652 q 0,-14.17753 -12.6022,-18.37827 -12.0771,-4.72583 -31.50555,-6.82621 V 511.5611 h 161.20365 v 14.70263 q -18.9034,1.57528 -22.579,2.10038 -15.2278,2.62546 -18.3783,8.92657 -3.1506,5.77604 -3.1506,12.07717 v 66.68688 q 9.4517,11.55205 25.2045,24.67938 -3.1506,1.05019 -25.2045,24.67939 v 69.83746 q 0,13.65243 13.1273,18.90336 11.027,3.67566 30.9806,5.25094 z"
         style="opacity:1;fill:none;fill-opacity:1;stroke:#000000;stroke-width:5.75311;stroke-dasharray:none"
         id="path3914" />
      <path
         d="m 1442.6155,586.64948 h -15.7528 q -1.5752,-5.25094 -12.077,-23.6292 -13.1274,-17.85319 -34.1312,-20.47866 -15.7528,-2.10036 -33.0808,-2.10036 h -9.4518 v 75.61347 q 20.4787,22.57902 29.4053,24.67938 -9.4517,3.15057 -29.4053,24.67939 V 773.58278 H 1265.134 V 665.4135 q -19.9536,-21.52882 -29.4053,-24.67939 8.9266,-2.62546 29.4053,-24.67938 v -75.61347 h -9.4517 q -17.8532,0 -33.0809,2.10036 -21.0037,2.62547 -34.1311,20.47866 -6.8262,8.92659 -12.0771,23.6292 h -15.7528 V 511.5611 h 281.9751 z"
         style="opacity:1;fill:none;fill-opacity:1;stroke:#000000;stroke-width:5.75311;stroke-dasharray:none"
         id="path3916" />
      <path
         d="m 985.58554,802.05655 604.25076,-20.12051 v -92.89332 c 0,-9.45169 -0.5251,-15.40275 -1.5754,-17.85318 -1.0502,-2.45043 -2.6254,-5.60101 -4.7257,-9.45169 l -9.4518,-14.17751 c -19.6034,-31.15556 -39.0318,-60.91086 -58.2853,-89.26592 -11.9022,-17.15305 -25.9047,-27.30485 -42.0075,-30.45541 -5.251,-1.05018 -9.9768,-1.57528 -14.1776,-1.57528 V 511.5611 h 158.0532 v 14.70263 c -25.9046,0.35005 -38.8569,3.32559 -38.8569,8.92659 0,2.80049 4.5508,11.72708 13.6524,26.77976 2.8005,5.25093 9.6267,16.2779 20.4787,33.08091 6.3012,8.75154 16.978,23.80422 32.0307,45.15804 9.8017,-14.0025 26.2546,-38.50686 49.3587,-73.5131 9.8017,-14.70262 14.7026,-23.62921 14.7026,-26.77977 0,-5.25094 -1.4002,-8.40151 -4.2007,-9.45169 -2.4505,-1.40024 -8.9267,-2.80049 -19.4285,-4.20074 V 511.5611 h 107.6443 v 14.70263 c 0,0.35005 -1.5752,1.05018 -4.7259,2.10038 -10.5018,2.80048 -19.7786,8.22645 -27.83,16.27788 -7.7014,7.70139 -21.3537,25.37953 -40.9572,53.03446 -7.0013,9.80174 -17.6783,25.02946 -32.0307,45.68313 -7.0012,8.75155 -14.3526,19.60349 -22.0539,32.5558 -1.7505,5.601 -2.6256,12.42722 -2.6256,20.47865 V 834.9705 h -15.2277 l -639.3584,-0.1993 M 938.09119,834.7493 12.434822,834.46076 915.72902,804.38262"
         style="display:inline;opacity:1;fill:none;fill-opacity:1;stroke:#000000;stroke-width:5.75311;stroke-dasharray:none"
         id="path3918"
         sodipodi:nodetypes="ccssccccccccsccccsccccscscccscccccc" />
    </g>
  </g>
</svg>
